<?xml version="1.0" encoding="utf-8" standalone="no"?>
<!DOCTYPE svg PUBLIC "-//W3C//DTD SVG 1.1//EN"
  "http://www.w3.org/Graphics/SVG/1.1/DTD/svg11.dtd">
<svg xmlns:xlink="http://www.w3.org/1999/xlink" width="460.8pt" height="345.6pt" viewBox="0 0 460.8 345.6" xmlns="http://www.w3.org/2000/svg" version="1.1">
 <metadata>
  <rdf:RDF xmlns:dc="http://purl.org/dc/elements/1.1/" xmlns:cc="http://creativecommons.org/ns#" xmlns:rdf="http://www.w3.org/1999/02/22-rdf-syntax-ns#">
   <cc:Work>
    <dc:type rdf:resource="http://purl.org/dc/dcmitype/StillImage"/>
    <dc:date>2025-04-10T16:05:40.381340</dc:date>
    <dc:format>image/svg+xml</dc:format>
    <dc:creator>
     <cc:Agent>
      <dc:title>Matplotlib v3.9.1, https://matplotlib.org/</dc:title>
     </cc:Agent>
    </dc:creator>
   </cc:Work>
  </rdf:RDF>
 </metadata>
 <defs>
  <style type="text/css">*{stroke-linejoin: round; stroke-linecap: butt}</style>
 </defs>
 <g id="figure_1">
  <g id="patch_1">
   <path d="M 0 345.6 
L 460.8 345.6 
L 460.8 0 
L 0 0 
z
" style="fill: #ffffff"/>
  </g>
  <g id="axes_1">
   <g id="patch_2">
    <path d="M 57.6 307.584 
L 414.72 307.584 
L 414.72 41.472 
L 57.6 41.472 
z
" style="fill: #ffffff"/>
   </g>
   <g id="matplotlib.axis_1">
    <g id="xtick_1">
     <g id="line2d_1">
      <defs>
       <path id="m2271ad4a4c" d="M 0 0 
L 0 3.5 
" style="stroke: #000000; stroke-width: 0.8"/>
      </defs>
      <g>
       <use xlink:href="#m2271ad4a4c" x="73.832727" y="307.584" style="stroke: #000000; stroke-width: 0.8"/>
      </g>
     </g>
     <g id="text_1">
      <!-- 0 -->
      <g transform="translate(70.651477 322.182437) scale(0.1 -0.1)">
       <defs>
        <path id="DejaVuSans-30" d="M 2034 4250 
Q 1547 4250 1301 3770 
Q 1056 3291 1056 2328 
Q 1056 1369 1301 889 
Q 1547 409 2034 409 
Q 2525 409 2770 889 
Q 3016 1369 3016 2328 
Q 3016 3291 2770 3770 
Q 2525 4250 2034 4250 
z
M 2034 4750 
Q 2819 4750 3233 4129 
Q 3647 3509 3647 2328 
Q 3647 1150 3233 529 
Q 2819 -91 2034 -91 
Q 1250 -91 836 529 
Q 422 1150 422 2328 
Q 422 3509 836 4129 
Q 1250 4750 2034 4750 
z
" transform="scale(0.015625)"/>
       </defs>
       <use xlink:href="#DejaVuSans-30"/>
      </g>
     </g>
    </g>
    <g id="xtick_2">
     <g id="line2d_2">
      <g>
       <use xlink:href="#m2271ad4a4c" x="116.772474" y="307.584" style="stroke: #000000; stroke-width: 0.8"/>
      </g>
     </g>
     <g id="text_2">
      <!-- 2 -->
      <g transform="translate(113.591224 322.182437) scale(0.1 -0.1)">
       <defs>
        <path id="DejaVuSans-32" d="M 1228 531 
L 3431 531 
L 3431 0 
L 469 0 
L 469 531 
Q 828 903 1448 1529 
Q 2069 2156 2228 2338 
Q 2531 2678 2651 2914 
Q 2772 3150 2772 3378 
Q 2772 3750 2511 3984 
Q 2250 4219 1831 4219 
Q 1534 4219 1204 4116 
Q 875 4013 500 3803 
L 500 4441 
Q 881 4594 1212 4672 
Q 1544 4750 1819 4750 
Q 2544 4750 2975 4387 
Q 3406 4025 3406 3419 
Q 3406 3131 3298 2873 
Q 3191 2616 2906 2266 
Q 2828 2175 2409 1742 
Q 1991 1309 1228 531 
z
" transform="scale(0.015625)"/>
       </defs>
       <use xlink:href="#DejaVuSans-32"/>
      </g>
     </g>
    </g>
    <g id="xtick_3">
     <g id="line2d_3">
      <g>
       <use xlink:href="#m2271ad4a4c" x="159.712221" y="307.584" style="stroke: #000000; stroke-width: 0.8"/>
      </g>
     </g>
     <g id="text_3">
      <!-- 4 -->
      <g transform="translate(156.530971 322.182437) scale(0.1 -0.1)">
       <defs>
        <path id="DejaVuSans-34" d="M 2419 4116 
L 825 1625 
L 2419 1625 
L 2419 4116 
z
M 2253 4666 
L 3047 4666 
L 3047 1625 
L 3713 1625 
L 3713 1100 
L 3047 1100 
L 3047 0 
L 2419 0 
L 2419 1100 
L 313 1100 
L 313 1709 
L 2253 4666 
z
" transform="scale(0.015625)"/>
       </defs>
       <use xlink:href="#DejaVuSans-34"/>
      </g>
     </g>
    </g>
    <g id="xtick_4">
     <g id="line2d_4">
      <g>
       <use xlink:href="#m2271ad4a4c" x="202.651968" y="307.584" style="stroke: #000000; stroke-width: 0.8"/>
      </g>
     </g>
     <g id="text_4">
      <!-- 6 -->
      <g transform="translate(199.470718 322.182437) scale(0.1 -0.1)">
       <defs>
        <path id="DejaVuSans-36" d="M 2113 2584 
Q 1688 2584 1439 2293 
Q 1191 2003 1191 1497 
Q 1191 994 1439 701 
Q 1688 409 2113 409 
Q 2538 409 2786 701 
Q 3034 994 3034 1497 
Q 3034 2003 2786 2293 
Q 2538 2584 2113 2584 
z
M 3366 4563 
L 3366 3988 
Q 3128 4100 2886 4159 
Q 2644 4219 2406 4219 
Q 1781 4219 1451 3797 
Q 1122 3375 1075 2522 
Q 1259 2794 1537 2939 
Q 1816 3084 2150 3084 
Q 2853 3084 3261 2657 
Q 3669 2231 3669 1497 
Q 3669 778 3244 343 
Q 2819 -91 2113 -91 
Q 1303 -91 875 529 
Q 447 1150 447 2328 
Q 447 3434 972 4092 
Q 1497 4750 2381 4750 
Q 2619 4750 2861 4703 
Q 3103 4656 3366 4563 
z
" transform="scale(0.015625)"/>
       </defs>
       <use xlink:href="#DejaVuSans-36"/>
      </g>
     </g>
    </g>
    <g id="xtick_5">
     <g id="line2d_5">
      <g>
       <use xlink:href="#m2271ad4a4c" x="245.591715" y="307.584" style="stroke: #000000; stroke-width: 0.8"/>
      </g>
     </g>
     <g id="text_5">
      <!-- 8 -->
      <g transform="translate(242.410465 322.182437) scale(0.1 -0.1)">
       <defs>
        <path id="DejaVuSans-38" d="M 2034 2216 
Q 1584 2216 1326 1975 
Q 1069 1734 1069 1313 
Q 1069 891 1326 650 
Q 1584 409 2034 409 
Q 2484 409 2743 651 
Q 3003 894 3003 1313 
Q 3003 1734 2745 1975 
Q 2488 2216 2034 2216 
z
M 1403 2484 
Q 997 2584 770 2862 
Q 544 3141 544 3541 
Q 544 4100 942 4425 
Q 1341 4750 2034 4750 
Q 2731 4750 3128 4425 
Q 3525 4100 3525 3541 
Q 3525 3141 3298 2862 
Q 3072 2584 2669 2484 
Q 3125 2378 3379 2068 
Q 3634 1759 3634 1313 
Q 3634 634 3220 271 
Q 2806 -91 2034 -91 
Q 1263 -91 848 271 
Q 434 634 434 1313 
Q 434 1759 690 2068 
Q 947 2378 1403 2484 
z
M 1172 3481 
Q 1172 3119 1398 2916 
Q 1625 2713 2034 2713 
Q 2441 2713 2670 2916 
Q 2900 3119 2900 3481 
Q 2900 3844 2670 4047 
Q 2441 4250 2034 4250 
Q 1625 4250 1398 4047 
Q 1172 3844 1172 3481 
z
" transform="scale(0.015625)"/>
       </defs>
       <use xlink:href="#DejaVuSans-38"/>
      </g>
     </g>
    </g>
    <g id="xtick_6">
     <g id="line2d_6">
      <g>
       <use xlink:href="#m2271ad4a4c" x="288.531462" y="307.584" style="stroke: #000000; stroke-width: 0.8"/>
      </g>
     </g>
     <g id="text_6">
      <!-- 10 -->
      <g transform="translate(282.168962 322.182437) scale(0.1 -0.1)">
       <defs>
        <path id="DejaVuSans-31" d="M 794 531 
L 1825 531 
L 1825 4091 
L 703 3866 
L 703 4441 
L 1819 4666 
L 2450 4666 
L 2450 531 
L 3481 531 
L 3481 0 
L 794 0 
L 794 531 
z
" transform="scale(0.015625)"/>
       </defs>
       <use xlink:href="#DejaVuSans-31"/>
       <use xlink:href="#DejaVuSans-30" x="63.623047"/>
      </g>
     </g>
    </g>
    <g id="xtick_7">
     <g id="line2d_7">
      <g>
       <use xlink:href="#m2271ad4a4c" x="331.47121" y="307.584" style="stroke: #000000; stroke-width: 0.8"/>
      </g>
     </g>
     <g id="text_7">
      <!-- 12 -->
      <g transform="translate(325.10871 322.182437) scale(0.1 -0.1)">
       <use xlink:href="#DejaVuSans-31"/>
       <use xlink:href="#DejaVuSans-32" x="63.623047"/>
      </g>
     </g>
    </g>
    <g id="xtick_8">
     <g id="line2d_8">
      <g>
       <use xlink:href="#m2271ad4a4c" x="374.410957" y="307.584" style="stroke: #000000; stroke-width: 0.8"/>
      </g>
     </g>
     <g id="text_8">
      <!-- 14 -->
      <g transform="translate(368.048457 322.182437) scale(0.1 -0.1)">
       <use xlink:href="#DejaVuSans-31"/>
       <use xlink:href="#DejaVuSans-34" x="63.623047"/>
      </g>
     </g>
    </g>
    <g id="text_9">
     <!-- Position (mm) -->
     <g transform="translate(201.464687 335.860562) scale(0.1 -0.1)">
      <defs>
       <path id="DejaVuSans-50" d="M 1259 4147 
L 1259 2394 
L 2053 2394 
Q 2494 2394 2734 2622 
Q 2975 2850 2975 3272 
Q 2975 3691 2734 3919 
Q 2494 4147 2053 4147 
L 1259 4147 
z
M 628 4666 
L 2053 4666 
Q 2838 4666 3239 4311 
Q 3641 3956 3641 3272 
Q 3641 2581 3239 2228 
Q 2838 1875 2053 1875 
L 1259 1875 
L 1259 0 
L 628 0 
L 628 4666 
z
" transform="scale(0.015625)"/>
       <path id="DejaVuSans-6f" d="M 1959 3097 
Q 1497 3097 1228 2736 
Q 959 2375 959 1747 
Q 959 1119 1226 758 
Q 1494 397 1959 397 
Q 2419 397 2687 759 
Q 2956 1122 2956 1747 
Q 2956 2369 2687 2733 
Q 2419 3097 1959 3097 
z
M 1959 3584 
Q 2709 3584 3137 3096 
Q 3566 2609 3566 1747 
Q 3566 888 3137 398 
Q 2709 -91 1959 -91 
Q 1206 -91 779 398 
Q 353 888 353 1747 
Q 353 2609 779 3096 
Q 1206 3584 1959 3584 
z
" transform="scale(0.015625)"/>
       <path id="DejaVuSans-73" d="M 2834 3397 
L 2834 2853 
Q 2591 2978 2328 3040 
Q 2066 3103 1784 3103 
Q 1356 3103 1142 2972 
Q 928 2841 928 2578 
Q 928 2378 1081 2264 
Q 1234 2150 1697 2047 
L 1894 2003 
Q 2506 1872 2764 1633 
Q 3022 1394 3022 966 
Q 3022 478 2636 193 
Q 2250 -91 1575 -91 
Q 1294 -91 989 -36 
Q 684 19 347 128 
L 347 722 
Q 666 556 975 473 
Q 1284 391 1588 391 
Q 1994 391 2212 530 
Q 2431 669 2431 922 
Q 2431 1156 2273 1281 
Q 2116 1406 1581 1522 
L 1381 1569 
Q 847 1681 609 1914 
Q 372 2147 372 2553 
Q 372 3047 722 3315 
Q 1072 3584 1716 3584 
Q 2034 3584 2315 3537 
Q 2597 3491 2834 3397 
z
" transform="scale(0.015625)"/>
       <path id="DejaVuSans-69" d="M 603 3500 
L 1178 3500 
L 1178 0 
L 603 0 
L 603 3500 
z
M 603 4863 
L 1178 4863 
L 1178 4134 
L 603 4134 
L 603 4863 
z
" transform="scale(0.015625)"/>
       <path id="DejaVuSans-74" d="M 1172 4494 
L 1172 3500 
L 2356 3500 
L 2356 3053 
L 1172 3053 
L 1172 1153 
Q 1172 725 1289 603 
Q 1406 481 1766 481 
L 2356 481 
L 2356 0 
L 1766 0 
Q 1100 0 847 248 
Q 594 497 594 1153 
L 594 3053 
L 172 3053 
L 172 3500 
L 594 3500 
L 594 4494 
L 1172 4494 
z
" transform="scale(0.015625)"/>
       <path id="DejaVuSans-6e" d="M 3513 2113 
L 3513 0 
L 2938 0 
L 2938 2094 
Q 2938 2591 2744 2837 
Q 2550 3084 2163 3084 
Q 1697 3084 1428 2787 
Q 1159 2491 1159 1978 
L 1159 0 
L 581 0 
L 581 3500 
L 1159 3500 
L 1159 2956 
Q 1366 3272 1645 3428 
Q 1925 3584 2291 3584 
Q 2894 3584 3203 3211 
Q 3513 2838 3513 2113 
z
" transform="scale(0.015625)"/>
       <path id="DejaVuSans-20" transform="scale(0.015625)"/>
       <path id="DejaVuSans-28" d="M 1984 4856 
Q 1566 4138 1362 3434 
Q 1159 2731 1159 2009 
Q 1159 1288 1364 580 
Q 1569 -128 1984 -844 
L 1484 -844 
Q 1016 -109 783 600 
Q 550 1309 550 2009 
Q 550 2706 781 3412 
Q 1013 4119 1484 4856 
L 1984 4856 
z
" transform="scale(0.015625)"/>
       <path id="DejaVuSans-6d" d="M 3328 2828 
Q 3544 3216 3844 3400 
Q 4144 3584 4550 3584 
Q 5097 3584 5394 3201 
Q 5691 2819 5691 2113 
L 5691 0 
L 5113 0 
L 5113 2094 
Q 5113 2597 4934 2840 
Q 4756 3084 4391 3084 
Q 3944 3084 3684 2787 
Q 3425 2491 3425 1978 
L 3425 0 
L 2847 0 
L 2847 2094 
Q 2847 2600 2669 2842 
Q 2491 3084 2119 3084 
Q 1678 3084 1418 2786 
Q 1159 2488 1159 1978 
L 1159 0 
L 581 0 
L 581 3500 
L 1159 3500 
L 1159 2956 
Q 1356 3278 1631 3431 
Q 1906 3584 2284 3584 
Q 2666 3584 2933 3390 
Q 3200 3197 3328 2828 
z
" transform="scale(0.015625)"/>
       <path id="DejaVuSans-29" d="M 513 4856 
L 1013 4856 
Q 1481 4119 1714 3412 
Q 1947 2706 1947 2009 
Q 1947 1309 1714 600 
Q 1481 -109 1013 -844 
L 513 -844 
Q 928 -128 1133 580 
Q 1338 1288 1338 2009 
Q 1338 2731 1133 3434 
Q 928 4138 513 4856 
z
" transform="scale(0.015625)"/>
      </defs>
      <use xlink:href="#DejaVuSans-50"/>
      <use xlink:href="#DejaVuSans-6f" x="56.677734"/>
      <use xlink:href="#DejaVuSans-73" x="117.859375"/>
      <use xlink:href="#DejaVuSans-69" x="169.958984"/>
      <use xlink:href="#DejaVuSans-74" x="197.742188"/>
      <use xlink:href="#DejaVuSans-69" x="236.951172"/>
      <use xlink:href="#DejaVuSans-6f" x="264.734375"/>
      <use xlink:href="#DejaVuSans-6e" x="325.916016"/>
      <use xlink:href="#DejaVuSans-20" x="389.294922"/>
      <use xlink:href="#DejaVuSans-28" x="421.082031"/>
      <use xlink:href="#DejaVuSans-6d" x="460.095703"/>
      <use xlink:href="#DejaVuSans-6d" x="557.507812"/>
      <use xlink:href="#DejaVuSans-29" x="654.919922"/>
     </g>
    </g>
   </g>
   <g id="matplotlib.axis_2">
    <g id="ytick_1">
     <g id="line2d_9">
      <defs>
       <path id="mf94b287a03" d="M 0 0 
L -3.5 0 
" style="stroke: #000000; stroke-width: 0.8"/>
      </defs>
      <g>
       <use xlink:href="#mf94b287a03" x="57.6" y="303.607107" style="stroke: #000000; stroke-width: 0.8"/>
      </g>
     </g>
     <g id="text_10">
      <!-- 0 -->
      <g transform="translate(44.2375 307.406325) scale(0.1 -0.1)">
       <use xlink:href="#DejaVuSans-30"/>
      </g>
     </g>
    </g>
    <g id="ytick_2">
     <g id="line2d_10">
      <g>
       <use xlink:href="#mf94b287a03" x="57.6" y="261.741564" style="stroke: #000000; stroke-width: 0.8"/>
      </g>
     </g>
     <g id="text_11">
      <!-- 500 -->
      <g transform="translate(31.5125 265.540783) scale(0.1 -0.1)">
       <defs>
        <path id="DejaVuSans-35" d="M 691 4666 
L 3169 4666 
L 3169 4134 
L 1269 4134 
L 1269 2991 
Q 1406 3038 1543 3061 
Q 1681 3084 1819 3084 
Q 2600 3084 3056 2656 
Q 3513 2228 3513 1497 
Q 3513 744 3044 326 
Q 2575 -91 1722 -91 
Q 1428 -91 1123 -41 
Q 819 9 494 109 
L 494 744 
Q 775 591 1075 516 
Q 1375 441 1709 441 
Q 2250 441 2565 725 
Q 2881 1009 2881 1497 
Q 2881 1984 2565 2268 
Q 2250 2553 1709 2553 
Q 1456 2553 1204 2497 
Q 953 2441 691 2322 
L 691 4666 
z
" transform="scale(0.015625)"/>
       </defs>
       <use xlink:href="#DejaVuSans-35"/>
       <use xlink:href="#DejaVuSans-30" x="63.623047"/>
       <use xlink:href="#DejaVuSans-30" x="127.246094"/>
      </g>
     </g>
    </g>
    <g id="ytick_3">
     <g id="line2d_11">
      <g>
       <use xlink:href="#mf94b287a03" x="57.6" y="219.876021" style="stroke: #000000; stroke-width: 0.8"/>
      </g>
     </g>
     <g id="text_12">
      <!-- 1000 -->
      <g transform="translate(25.15 223.67524) scale(0.1 -0.1)">
       <use xlink:href="#DejaVuSans-31"/>
       <use xlink:href="#DejaVuSans-30" x="63.623047"/>
       <use xlink:href="#DejaVuSans-30" x="127.246094"/>
       <use xlink:href="#DejaVuSans-30" x="190.869141"/>
      </g>
     </g>
    </g>
    <g id="ytick_4">
     <g id="line2d_12">
      <g>
       <use xlink:href="#mf94b287a03" x="57.6" y="178.010479" style="stroke: #000000; stroke-width: 0.8"/>
      </g>
     </g>
     <g id="text_13">
      <!-- 1500 -->
      <g transform="translate(25.15 181.809697) scale(0.1 -0.1)">
       <use xlink:href="#DejaVuSans-31"/>
       <use xlink:href="#DejaVuSans-35" x="63.623047"/>
       <use xlink:href="#DejaVuSans-30" x="127.246094"/>
       <use xlink:href="#DejaVuSans-30" x="190.869141"/>
      </g>
     </g>
    </g>
    <g id="ytick_5">
     <g id="line2d_13">
      <g>
       <use xlink:href="#mf94b287a03" x="57.6" y="136.144936" style="stroke: #000000; stroke-width: 0.8"/>
      </g>
     </g>
     <g id="text_14">
      <!-- 2000 -->
      <g transform="translate(25.15 139.944155) scale(0.1 -0.1)">
       <use xlink:href="#DejaVuSans-32"/>
       <use xlink:href="#DejaVuSans-30" x="63.623047"/>
       <use xlink:href="#DejaVuSans-30" x="127.246094"/>
       <use xlink:href="#DejaVuSans-30" x="190.869141"/>
      </g>
     </g>
    </g>
    <g id="ytick_6">
     <g id="line2d_14">
      <g>
       <use xlink:href="#mf94b287a03" x="57.6" y="94.279393" style="stroke: #000000; stroke-width: 0.8"/>
      </g>
     </g>
     <g id="text_15">
      <!-- 2500 -->
      <g transform="translate(25.15 98.078612) scale(0.1 -0.1)">
       <use xlink:href="#DejaVuSans-32"/>
       <use xlink:href="#DejaVuSans-35" x="63.623047"/>
       <use xlink:href="#DejaVuSans-30" x="127.246094"/>
       <use xlink:href="#DejaVuSans-30" x="190.869141"/>
      </g>
     </g>
    </g>
    <g id="ytick_7">
     <g id="line2d_15">
      <g>
       <use xlink:href="#mf94b287a03" x="57.6" y="52.413851" style="stroke: #000000; stroke-width: 0.8"/>
      </g>
     </g>
     <g id="text_16">
      <!-- 3000 -->
      <g transform="translate(25.15 56.213069) scale(0.1 -0.1)">
       <defs>
        <path id="DejaVuSans-33" d="M 2597 2516 
Q 3050 2419 3304 2112 
Q 3559 1806 3559 1356 
Q 3559 666 3084 287 
Q 2609 -91 1734 -91 
Q 1441 -91 1130 -33 
Q 819 25 488 141 
L 488 750 
Q 750 597 1062 519 
Q 1375 441 1716 441 
Q 2309 441 2620 675 
Q 2931 909 2931 1356 
Q 2931 1769 2642 2001 
Q 2353 2234 1838 2234 
L 1294 2234 
L 1294 2753 
L 1863 2753 
Q 2328 2753 2575 2939 
Q 2822 3125 2822 3475 
Q 2822 3834 2567 4026 
Q 2313 4219 1838 4219 
Q 1578 4219 1281 4162 
Q 984 4106 628 3988 
L 628 4550 
Q 988 4650 1302 4700 
Q 1616 4750 1894 4750 
Q 2613 4750 3031 4423 
Q 3450 4097 3450 3541 
Q 3450 3153 3228 2886 
Q 3006 2619 2597 2516 
z
" transform="scale(0.015625)"/>
       </defs>
       <use xlink:href="#DejaVuSans-33"/>
       <use xlink:href="#DejaVuSans-30" x="63.623047"/>
       <use xlink:href="#DejaVuSans-30" x="127.246094"/>
       <use xlink:href="#DejaVuSans-30" x="190.869141"/>
      </g>
     </g>
    </g>
    <g id="text_17">
     <!-- Intensité (a.u.) -->
     <g transform="translate(19.070312 211.30925) rotate(-90) scale(0.1 -0.1)">
      <defs>
       <path id="DejaVuSans-49" d="M 628 4666 
L 1259 4666 
L 1259 0 
L 628 0 
L 628 4666 
z
" transform="scale(0.015625)"/>
       <path id="DejaVuSans-65" d="M 3597 1894 
L 3597 1613 
L 953 1613 
Q 991 1019 1311 708 
Q 1631 397 2203 397 
Q 2534 397 2845 478 
Q 3156 559 3463 722 
L 3463 178 
Q 3153 47 2828 -22 
Q 2503 -91 2169 -91 
Q 1331 -91 842 396 
Q 353 884 353 1716 
Q 353 2575 817 3079 
Q 1281 3584 2069 3584 
Q 2775 3584 3186 3129 
Q 3597 2675 3597 1894 
z
M 3022 2063 
Q 3016 2534 2758 2815 
Q 2500 3097 2075 3097 
Q 1594 3097 1305 2825 
Q 1016 2553 972 2059 
L 3022 2063 
z
" transform="scale(0.015625)"/>
       <path id="DejaVuSans-e9" d="M 3597 1894 
L 3597 1613 
L 953 1613 
Q 991 1019 1311 708 
Q 1631 397 2203 397 
Q 2534 397 2845 478 
Q 3156 559 3463 722 
L 3463 178 
Q 3153 47 2828 -22 
Q 2503 -91 2169 -91 
Q 1331 -91 842 396 
Q 353 884 353 1716 
Q 353 2575 817 3079 
Q 1281 3584 2069 3584 
Q 2775 3584 3186 3129 
Q 3597 2675 3597 1894 
z
M 3022 2063 
Q 3016 2534 2758 2815 
Q 2500 3097 2075 3097 
Q 1594 3097 1305 2825 
Q 1016 2553 972 2059 
L 3022 2063 
z
M 2466 5119 
L 3088 5119 
L 2070 3944 
L 1591 3944 
L 2466 5119 
z
" transform="scale(0.015625)"/>
       <path id="DejaVuSans-61" d="M 2194 1759 
Q 1497 1759 1228 1600 
Q 959 1441 959 1056 
Q 959 750 1161 570 
Q 1363 391 1709 391 
Q 2188 391 2477 730 
Q 2766 1069 2766 1631 
L 2766 1759 
L 2194 1759 
z
M 3341 1997 
L 3341 0 
L 2766 0 
L 2766 531 
Q 2569 213 2275 61 
Q 1981 -91 1556 -91 
Q 1019 -91 701 211 
Q 384 513 384 1019 
Q 384 1609 779 1909 
Q 1175 2209 1959 2209 
L 2766 2209 
L 2766 2266 
Q 2766 2663 2505 2880 
Q 2244 3097 1772 3097 
Q 1472 3097 1187 3025 
Q 903 2953 641 2809 
L 641 3341 
Q 956 3463 1253 3523 
Q 1550 3584 1831 3584 
Q 2591 3584 2966 3190 
Q 3341 2797 3341 1997 
z
" transform="scale(0.015625)"/>
       <path id="DejaVuSans-2e" d="M 684 794 
L 1344 794 
L 1344 0 
L 684 0 
L 684 794 
z
" transform="scale(0.015625)"/>
       <path id="DejaVuSans-75" d="M 544 1381 
L 544 3500 
L 1119 3500 
L 1119 1403 
Q 1119 906 1312 657 
Q 1506 409 1894 409 
Q 2359 409 2629 706 
Q 2900 1003 2900 1516 
L 2900 3500 
L 3475 3500 
L 3475 0 
L 2900 0 
L 2900 538 
Q 2691 219 2414 64 
Q 2138 -91 1772 -91 
Q 1169 -91 856 284 
Q 544 659 544 1381 
z
M 1991 3584 
L 1991 3584 
z
" transform="scale(0.015625)"/>
      </defs>
      <use xlink:href="#DejaVuSans-49"/>
      <use xlink:href="#DejaVuSans-6e" x="29.492188"/>
      <use xlink:href="#DejaVuSans-74" x="92.871094"/>
      <use xlink:href="#DejaVuSans-65" x="132.080078"/>
      <use xlink:href="#DejaVuSans-6e" x="193.603516"/>
      <use xlink:href="#DejaVuSans-73" x="256.982422"/>
      <use xlink:href="#DejaVuSans-69" x="309.082031"/>
      <use xlink:href="#DejaVuSans-74" x="336.865234"/>
      <use xlink:href="#DejaVuSans-e9" x="376.074219"/>
      <use xlink:href="#DejaVuSans-20" x="437.597656"/>
      <use xlink:href="#DejaVuSans-28" x="469.384766"/>
      <use xlink:href="#DejaVuSans-61" x="508.398438"/>
      <use xlink:href="#DejaVuSans-2e" x="569.677734"/>
      <use xlink:href="#DejaVuSans-75" x="601.464844"/>
      <use xlink:href="#DejaVuSans-2e" x="664.84375"/>
      <use xlink:href="#DejaVuSans-29" x="696.630859"/>
     </g>
    </g>
   </g>
   <g id="line2d_16">
    <path d="M 73.832727 295.079849 
L 74.457501 295.096512 
L 75.292679 295.059419 
L 75.709194 295.086966 
L 76.542225 295.071309 
L 91.446612 294.834852 
L 95.197398 294.819613 
L 96.032576 294.808644 
L 112.499969 294.901 
L 112.708227 294.910964 
L 114.479492 294.911885 
L 114.896007 294.934241 
L 115.625983 294.90954 
L 116.355959 294.941442 
L 120.733666 294.997039 
L 121.461495 295.006585 
L 121.983213 294.987996 
L 125.630944 294.985149 
L 127.612613 294.97326 
L 128.5487 294.985652 
L 129.070418 294.970915 
L 130.322111 294.963296 
L 131.155143 294.952829 
L 133.239867 294.959025 
L 133.656383 294.933822 
L 139.910557 294.88149 
L 142.098337 294.88484 
L 143.661344 294.878141 
L 144.288264 294.857208 
L 145.016093 294.859134 
L 146.059529 294.867172 
L 146.5791 294.849086 
L 148.144254 294.811575 
L 148.663824 294.82673 
L 150.332034 294.81057 
L 150.748549 294.791563 
L 151.375469 294.797759 
L 153.666305 294.793489 
L 154.293225 294.759662 
L 156.586208 294.755894 
L 157.002723 294.757317 
L 170.55236 294.272514 
L 171.593649 293.824804 
L 172.010165 293.26255 
L 172.323625 292.549831 
L 173.573172 288.302404 
L 174.824865 282.437376 
L 178.159137 262.769196 
L 179.827346 250.477807 
L 180.243861 246.922083 
L 180.557322 244.425892 
L 181.390353 238.0913 
L 181.59861 236.296357 
L 182.328586 228.928943 
L 182.745102 226.411316 
L 182.953359 224.433672 
L 183.161617 222.746658 
L 183.26682 222.677663 
L 183.369875 222.448408 
L 184.099851 213.950121 
L 184.205053 213.384518 
L 184.621569 209.612767 
L 185.662857 198.853825 
L 185.871115 196.764818 
L 185.976318 196.510276 
L 186.08152 196.860942 
L 186.184575 196.447478 
L 186.392833 193.170075 
L 186.706293 187.726634 
L 187.122809 183.335525 
L 187.228011 182.978244 
L 187.436269 180.667015 
L 187.852785 176.452913 
L 188.061042 177.068504 
L 188.2693 174.1555 
L 188.374503 173.781138 
L 188.58276 172.772095 
L 188.685816 172.889067 
L 189.102331 170.552216 
L 189.729252 162.96124 
L 190.354025 154.490166 
L 191.084001 147.241649 
L 191.187056 146.745459 
L 191.708774 140.504144 
L 191.811829 140.591727 
L 192.230492 138.897093 
L 192.43875 140.595494 
L 192.647007 138.518461 
L 193.063523 132.876074 
L 193.688296 125.052912 
L 193.896554 126.992542 
L 194.315217 122.370251 
L 194.523474 121.198435 
L 194.62653 120.543323 
L 195.148248 110.534193 
L 195.356505 109.163096 
L 195.564763 109.487554 
L 196.086481 103.367565 
L 196.189536 102.952678 
L 196.294739 101.155306 
L 196.397794 101.421236 
L 196.711254 99.601509 
L 196.816457 99.730957 
L 196.919512 99.481689 
L 197.024715 98.558219 
L 197.232972 100.724342 
L 197.44123 99.550181 
L 197.649488 97.173307 
L 198.587721 88.761682 
L 198.690777 88.465777 
L 198.795979 89.099454 
L 198.899035 88.815019 
L 199.004237 88.148436 
L 199.734213 77.168276 
L 199.94247 78.223037 
L 200.150728 79.605018 
L 200.880704 73.797179 
L 200.983759 74.228143 
L 201.192017 74.059257 
L 201.297219 73.684896 
L 201.400275 74.158227 
L 201.505477 75.489384 
L 201.818937 72.142067 
L 201.921993 72.427925 
L 202.027195 72.111589 
L 202.338508 68.252841 
L 202.443711 68.867009 
L 202.546766 68.468784 
L 202.757171 68.788051 
L 202.860226 70.166767 
L 203.173686 69.279971 
L 203.276742 68.483102 
L 203.381944 68.99495 
L 203.484999 68.824641 
L 203.590202 67.139134 
L 204.11192 72.701474 
L 204.320178 71.614896 
L 204.944951 76.33331 
L 205.050153 75.657349 
L 205.153209 76.450868 
L 205.674927 71.595386 
L 205.777982 72.217676 
L 205.883184 71.942703 
L 205.98624 72.800444 
L 206.2997 69.656761 
L 206.507958 71.054986 
L 206.61316 70.895143 
L 206.716215 71.08111 
L 206.924473 72.418463 
L 207.340989 65.625276 
L 207.654449 62.093834 
L 207.862707 64.685227 
L 207.967909 64.280806 
L 208.176167 66.271345 
L 208.384425 68.636749 
L 208.48748 68.989256 
L 208.592682 70.392757 
L 209.1144 59.423985 
L 209.322658 61.881659 
L 209.425713 62.226548 
L 209.633971 64.937844 
L 209.947431 70.439814 
L 210.052634 71.699632 
L 210.260892 71.423152 
L 210.469149 70.187197 
L 210.572205 69.908875 
L 211.093923 64.567669 
L 211.199125 64.513914 
L 211.30218 63.45212 
L 211.407383 63.758492 
L 211.718696 65.605767 
L 211.823898 65.916912 
L 211.926954 64.303665 
L 212.345616 68.211395 
L 212.553874 69.851352 
L 212.762132 69.349384 
L 212.865187 69.24045 
L 213.178647 65.28985 
L 213.281703 66.521618 
L 213.803421 60.711769 
L 213.908623 61.113343 
L 214.428194 66.00349 
L 214.533396 65.858886 
L 214.846857 60.162325 
L 215.15817 62.445421 
L 215.47163 64.949232 
L 215.993348 56.803034 
L 216.096403 57.172707 
L 216.201606 55.488121 
L 216.304661 55.709339 
L 216.512919 55.622761 
L 216.721177 57.628037 
L 217.451152 64.208546 
L 217.556355 64.026347 
L 217.764612 67.395519 
L 218.181128 58.911132 
L 218.597643 62.353568 
L 218.702846 61.91398 
L 219.014159 57.663706 
L 219.119361 57.89539 
L 219.327619 59.140387 
L 219.432822 59.157552 
L 219.535877 58.946299 
L 219.641079 57.749363 
L 219.744135 58.24413 
L 219.952392 54.184093 
L 220.16065 54.274523 
L 220.265853 54.993354 
L 220.368908 54.834935 
L 220.682368 59.876886 
L 220.787571 59.449188 
L 221.204086 64.301739 
L 221.307141 63.36931 
L 221.515399 64.861733 
L 221.723657 62.019648 
L 221.828859 63.332217 
L 222.350577 59.859721 
L 222.558835 62.211309 
L 222.661891 61.428758 
L 222.767093 59.032374 
L 222.870148 59.472967 
L 223.080553 58.099024 
L 223.288811 62.121884 
L 223.391866 62.023919 
L 223.497069 62.272265 
L 223.705326 65.932151 
L 223.808382 65.438807 
L 224.01664 66.240449 
L 224.227044 64.124313 
L 224.435302 67.389323 
L 224.538357 66.795586 
L 224.746615 64.068632 
L 224.851818 64.418293 
L 224.954873 65.247565 
L 225.060075 64.274191 
L 225.268333 62.09576 
L 225.373536 61.209885 
L 225.581793 57.074742 
L 225.790051 56.771216 
L 225.893106 57.844481 
L 226.101364 55.282561 
L 226.206567 56.017637 
L 226.414824 59.138462 
L 226.520027 59.83075 
L 226.623082 59.666554 
L 226.83134 61.645705 
L 226.936542 61.786039 
L 227.456113 67.455973 
L 227.664371 64.941612 
L 227.977831 57.271677 
L 228.083034 54.84155 
L 228.707807 58.040496 
L 228.810862 57.700799 
L 229.021267 60.571938 
L 229.33258 58.561889 
L 229.437783 59.706996 
L 229.64604 59.367801 
L 229.749096 60.594796 
L 230.062556 58.677941 
L 230.167758 56.720308 
L 230.270814 57.731277 
L 230.376016 60.199921 
L 230.479071 65.275113 
L 230.584274 62.662787 
L 230.792532 54.410084 
L 230.895587 55.25359 
L 231.000789 55.163663 
L 231.103845 53.568 
L 231.417305 57.783609 
L 231.625563 55.353482 
L 231.939023 61.014373 
L 232.147281 59.137038 
L 232.355538 60.674676 
L 232.668999 56.735045 
L 232.772054 57.797843 
L 232.980312 61.010521 
L 233.085514 61.248904 
L 233.18857 60.627619 
L 233.50203 57.513827 
L 233.81549 62.198498 
L 234.023748 63.354071 
L 234.126803 62.04527 
L 234.335061 64.628625 
L 234.440263 64.434034 
L 234.648521 61.521532 
L 234.961981 66.75372 
L 235.065036 66.228056 
L 235.378497 62.843562 
L 235.481552 62.759831 
L 235.795012 67.322757 
L 235.898068 67.269001 
L 236.211528 62.467777 
L 236.31673 62.954003 
L 236.733246 57.062349 
L 236.836301 57.14181 
L 237.044559 55.394845 
L 237.149761 55.199333 
L 237.463221 63.236596 
L 237.774534 67.829413 
L 237.982792 71.959365 
L 238.19105 65.961624 
L 238.399308 69.708088 
L 238.50451 69.638675 
L 238.712768 70.235761 
L 238.81797 70.233835 
L 239.026228 65.268917 
L 239.234486 64.295543 
L 239.337541 64.412097 
L 239.442744 63.842223 
L 239.651001 61.351223 
L 239.756204 62.020569 
L 239.964462 64.283653 
L 240.172719 62.97301 
L 240.275775 63.675682 
L 240.484033 68.612048 
L 240.69229 67.016385 
L 240.902695 67.945465 
L 241.110953 64.919758 
L 241.319211 65.299897 
L 241.422266 64.773229 
L 241.630524 65.423568 
L 241.735726 65.412599 
L 241.943984 64.853611 
L 242.152242 69.562982 
L 242.257444 69.191969 
L 242.465702 70.976028 
L 242.568757 69.836615 
L 242.67396 70.71621 
L 242.777015 70.526894 
L 242.882217 71.07684 
L 243.090475 74.009354 
L 243.193531 72.965059 
L 243.298733 70.583496 
L 243.403935 70.669153 
L 243.506991 71.074914 
L 243.612193 69.83561 
L 243.715248 71.555447 
L 243.820451 71.049711 
L 243.923506 71.589693 
L 244.028709 69.125319 
L 244.131764 69.689583 
L 244.340022 67.158644 
L 244.445224 68.902678 
L 244.550427 68.535434 
L 244.653482 68.56968 
L 244.758684 66.094338 
L 245.1752 70.455053 
L 245.278255 70.22856 
L 245.486513 67.766615 
L 245.799973 71.122557 
L 246.008231 69.876555 
L 246.113433 71.729607 
L 246.216489 71.403642 
L 246.424747 74.644956 
L 246.633004 73.622097 
L 247.051667 65.39309 
L 247.259925 67.091491 
L 247.36298 65.35315 
L 247.468182 66.187112 
L 247.571238 65.553937 
L 247.779496 68.565828 
L 247.884698 67.780431 
L 248.092956 65.165258 
L 248.406416 68.733793 
L 248.509471 71.367973 
L 248.614674 70.374169 
L 248.822931 73.679621 
L 248.925987 72.795253 
L 249.031189 73.835193 
L 249.239447 68.678112 
L 249.447705 76.054569 
L 249.552907 74.957022 
L 249.655962 75.724417 
L 249.761165 75.681547 
L 249.86422 75.777168 
L 249.969423 73.468869 
L 250.072478 73.630638 
L 250.491141 66.651903 
L 250.699398 63.666639 
L 251.115914 67.406906 
L 251.218969 68.571606 
L 251.324172 66.332218 
L 251.427227 66.802284 
L 251.637632 62.896899 
L 251.740687 63.208965 
L 251.84589 63.718971 
L 252.054147 65.749449 
L 252.157203 65.358844 
L 252.262405 64.299395 
L 252.470663 68.689583 
L 252.678921 71.055405 
L 252.887178 66.363198 
L 252.992381 67.613387 
L 253.303694 76.375678 
L 253.72021 70.506464 
L 253.825412 70.564489 
L 254.03367 65.062938 
L 254.241927 68.56541 
L 254.450185 69.563987 
L 254.555388 68.432612 
L 254.658443 68.520195 
L 254.763645 67.767117 
L 254.971903 72.416537 
L 255.074959 72.378942 
L 255.180161 71.010274 
L 255.285363 71.815683 
L 255.493621 71.568258 
L 255.596676 71.791401 
L 255.701879 72.910383 
L 255.910137 70.000728 
L 256.013192 70.303751 
L 256.22145 69.776161 
L 256.326652 66.424992 
L 256.431855 66.466439 
L 256.53491 64.76226 
L 256.640112 64.801781 
L 256.951426 71.94128 
L 257.056628 72.218597 
L 257.264886 77.477076 
L 257.367941 76.683473 
L 257.473143 76.98658 
L 257.681401 78.966569 
L 257.786604 78.45045 
L 257.994861 74.038827 
L 258.097917 77.292952 
L 258.306175 75.898076 
L 258.514432 75.156386 
L 258.619635 76.158731 
L 258.724837 76.083121 
L 258.933095 73.62687 
L 259.141353 75.822885 
L 259.452666 72.674848 
L 259.557868 72.398954 
L 259.660924 73.625865 
L 259.766126 72.347543 
L 259.869181 73.437973 
L 259.974384 70.342267 
L 260.079586 70.81945 
L 260.182641 72.122055 
L 260.496102 68.017808 
L 260.704359 71.226718 
L 260.912617 74.516513 
L 261.015673 73.923194 
L 261.120875 75.046949 
L 261.329133 73.352818 
L 261.850851 77.655424 
L 261.953906 77.507471 
L 262.059108 77.563654 
L 262.162164 76.660698 
L 262.267366 73.964641 
L 262.372569 75.306181 
L 262.580826 73.250499 
L 262.683882 73.281479 
L 262.89214 71.456979 
L 262.997342 70.029699 
L 263.2056 71.949318 
L 263.51906 73.361359 
L 263.622115 72.769045 
L 263.727318 72.914151 
L 264.038631 75.300068 
L 264.246889 73.743842 
L 264.352091 74.315726 
L 264.455146 73.883255 
L 264.560349 74.914235 
L 264.768606 71.653914 
L 264.873809 71.170116 
L 265.082067 75.307185 
L 265.290324 74.191552 
L 265.498582 76.530748 
L 265.601638 76.715375 
L 265.809895 79.418047 
L 266.0203 78.599827 
L 266.331613 81.672674 
L 266.436816 81.694025 
L 266.645073 78.076926 
L 266.748129 78.728689 
L 266.853331 81.188289 
L 267.061589 79.00609 
L 267.166791 80.855291 
L 267.269847 79.413358 
L 267.478105 74.064532 
L 267.686362 71.152951 
L 267.791565 72.151528 
L 267.999822 75.468451 
L 268.102878 74.71864 
L 268.20808 75.524133 
L 268.313283 75.115944 
L 268.416338 75.161075 
L 268.52154 75.644036 
L 268.832854 81.076508 
L 268.938056 79.549421 
L 269.041111 80.570773 
L 269.459774 89.6566 
L 269.562829 88.498599 
L 269.979345 78.93517 
L 270.187603 80.392425 
L 270.70932 68.828911 
L 270.814523 69.461249 
L 271.334094 81.601753 
L 271.647554 77.380451 
L 271.855812 75.164424 
L 272.064069 76.780099 
L 272.272327 75.114018 
L 272.480585 77.347628 
L 272.585787 76.958446 
L 272.794045 74.853279 
L 272.897101 75.583582 
L 273.210561 82.95242 
L 273.418819 80.437138 
L 273.627076 82.704073 
L 273.940536 76.714872 
L 274.043592 77.03933 
L 274.148794 78.537447 
L 274.357052 76.332891 
L 274.462254 76.349051 
L 274.773568 82.651239 
L 274.87877 81.794921 
L 275.087028 84.90821 
L 275.190083 85.151282 
L 275.295285 86.963892 
L 275.503543 85.057587 
L 275.920059 78.955181 
L 276.025261 78.705412 
L 276.128317 77.517435 
L 276.336574 80.125072 
L 276.755237 82.024177 
L 277.171752 77.504122 
L 277.588268 79.235848 
L 277.691323 81.053231 
L 277.901728 86.243135 
L 278.004783 88.373505 
L 278.213041 86.877314 
L 278.318244 86.787806 
L 278.421299 85.403898 
L 278.629557 88.324522 
L 278.837815 82.151197 
L 279.048219 81.958113 
L 279.151275 82.717805 
L 279.256477 85.02041 
L 279.359533 84.806812 
L 279.464735 85.518526 
L 279.88125 80.453298 
L 279.984306 81.319663 
L 280.194711 80.268671 
L 280.506024 85.612724 
L 280.611226 86.611803 
L 280.714282 86.373923 
L 280.819484 88.143747 
L 281.444257 80.936175 
L 281.54946 82.082286 
L 281.652515 81.093171 
L 281.965975 86.067049 
L 282.069031 86.658944 
L 282.174233 86.258793 
L 282.382491 84.334401 
L 282.485546 84.101796 
L 283.007264 86.724086 
L 283.112466 87.710773 
L 283.215522 86.582832 
L 283.42378 87.041846 
L 283.73724 82.662626 
L 283.945497 83.690258 
L 284.0507 82.166436 
L 284.153755 82.175479 
L 284.258958 82.806309 
L 284.570271 80.967574 
L 284.778529 84.2464 
L 284.883731 85.587521 
L 285.091989 83.709767 
L 285.405449 86.903941 
L 285.508504 86.495752 
L 285.613707 84.163171 
L 285.716762 84.268337 
L 285.92502 90.572367 
L 286.446738 86.432451 
L 286.55194 87.497175 
L 286.760198 87.075171 
L 286.863253 85.860651 
L 287.071511 86.759756 
L 287.176713 88.693693 
L 287.801487 81.205957 
L 288.009745 83.292535 
L 288.114947 82.318659 
L 288.323205 83.34202 
L 288.42626 83.414783 
L 288.531462 85.129428 
L 288.636665 84.957193 
L 288.844923 87.539041 
L 288.947978 87.454808 
L 289.05318 87.851609 
L 289.156236 87.068054 
L 289.469696 88.188878 
L 289.572751 87.180839 
L 289.677954 87.500022 
L 289.783156 87.433456 
L 289.886211 86.41964 
L 289.991414 86.824982 
L 290.199672 89.485286 
L 290.302727 89.118042 
L 290.510985 90.328793 
L 290.929647 92.011956 
L 291.137905 91.374511 
L 291.449218 95.234179 
L 291.762678 92.784626 
L 292.073992 88.999562 
L 292.284396 86.924371 
L 292.387452 86.211736 
L 292.59571 87.116618 
L 293.012225 93.756995 
L 293.220483 93.965904 
L 293.325685 94.540132 
L 293.430888 94.324106 
L 293.533943 95.837461 
L 293.742201 92.444008 
L 293.847403 91.755069 
L 294.055661 89.747951 
L 294.158716 88.91064 
L 294.263919 90.554784 
L 294.785637 87.422487 
L 294.888692 87.932996 
L 294.993894 88.114692 
L 295.41041 91.73983 
L 295.513465 91.371162 
L 295.618668 92.773657 
L 295.72387 92.35877 
L 295.932128 89.807902 
L 296.140386 89.936346 
L 296.243441 91.231749 
L 296.348643 90.988176 
L 296.451699 92.668491 
L 296.765159 91.976286 
L 296.868214 92.127588 
L 296.973417 90.337836 
L 297.078619 91.607116 
L 297.181675 90.009108 
L 297.286877 90.854541 
L 297.59819 98.74427 
L 297.806448 101.507396 
L 298.119908 101.239037 
L 298.22511 100.308032 
L 298.536424 102.254277 
L 298.641626 102.15246 
L 298.744681 102.603519 
L 298.849884 100.612478 
L 299.058141 101.345125 
L 299.161197 100.799449 
L 299.474657 101.664894 
L 299.788117 108.003672 
L 299.996375 111.176913 
L 300.09943 110.364805 
L 300.41289 110.478512 
L 301.351124 118.90345 
L 301.559382 117.460512 
L 302.497615 125.438326 
L 302.808928 127.651925 
L 302.914131 127.601016 
L 303.122389 126.546339 
L 303.330646 127.892233 
L 304.790598 146.516622 
L 304.893653 145.773508 
L 305.207113 147.794023 
L 306.145347 159.275648 
L 306.353604 162.716242 
L 306.561862 163.372275 
L 306.667065 163.432227 
L 306.77012 164.034505 
L 306.875322 163.559247 
L 307.08358 164.740525 
L 307.186636 165.981755 
L 307.291838 165.915105 
L 307.603151 169.7278 
L 308.021814 174.191671 
L 308.333127 176.745469 
L 308.541385 177.659394 
L 308.749642 179.941485 
L 308.960047 181.53338 
L 309.479618 184.746561 
L 309.58482 185.169487 
L 309.896134 188.945507 
L 310.314796 190.843189 
L 311.25303 202.117412 
L 311.669545 204.109374 
L 311.772601 204.337709 
L 312.816036 213.261768 
L 313.232552 217.370285 
L 313.335607 217.490188 
L 313.543865 219.141449 
L 313.649068 219.419268 
L 314.170785 222.704792 
L 314.587301 225.988391 
L 314.690356 226.344248 
L 315.212074 231.640239 
L 315.525534 232.873849 
L 316.566823 240.807872 
L 316.880283 242.784595 
L 318.651548 256.886082 
L 318.965008 258.557857 
L 319.694984 263.288245 
L 322.091022 277.849332 
L 323.342715 284.024499 
L 323.759231 285.809478 
L 324.592262 289.254845 
L 325.008778 290.67685 
L 326.052213 293.400455 
L 326.571784 294.003235 
L 327.30176 294.329116 
L 327.510018 294.357669 
L 328.761711 294.465179 
L 329.073025 294.526052 
L 329.594743 294.554186 
L 330.011258 294.582738 
L 330.219516 294.587929 
L 332.722903 294.673586 
L 334.702425 294.693514 
L 335.951972 294.733956 
L 337.098463 294.740655 
L 338.97493 294.771551 
L 339.391446 294.763513 
L 340.018366 294.798178 
L 340.329679 294.784865 
L 341.164857 294.813417 
L 341.581373 294.78252 
L 342.206146 294.792484 
L 372.53449 295.000388 
L 372.84795 294.974683 
L 373.369668 294.976609 
L 374.619214 294.974264 
L 375.243988 294.976609 
L 375.66265 294.955174 
L 376.182221 294.956178 
L 377.433915 294.922351 
L 377.85043 294.928547 
L 378.475204 294.904768 
L 379.099977 294.895725 
L 379.518639 294.885258 
L 381.498162 294.871443 
L 383.8942 294.856706 
L 384.415918 294.850091 
L 388.063649 294.823465 
L 388.793625 294.83862 
L 389.21014 294.835773 
L 390.981405 294.802532 
L 391.294865 294.805379 
L 398.487273 294.815845 
L 398.487273 294.815845 
" clip-path="url(#p8476edf5bc)" style="fill: none; stroke: #808080; stroke-width: 1.5; stroke-linecap: square"/>
   </g>
   <g id="line2d_17">
    <path d="M 73.832727 295.235282 
L 158.25227 295.124199 
L 161.275228 294.885586 
L 163.359953 294.509904 
L 165.028162 293.980306 
L 166.382911 293.321381 
L 167.632458 292.461694 
L 168.778949 291.396158 
L 169.92544 289.997922 
L 170.968876 288.373656 
L 172.010165 286.356085 
L 173.053601 283.87317 
L 174.200092 280.535816 
L 175.346583 276.480182 
L 176.59613 271.154104 
L 177.847824 264.795026 
L 179.202573 256.698863 
L 180.660377 246.56066 
L 182.223384 234.113019 
L 184.099851 217.269031 
L 186.498036 193.544243 
L 192.333547 134.86237 
L 194.210014 118.551295 
L 195.878223 105.885739 
L 197.336028 96.375426 
L 198.690777 88.862307 
L 200.045526 82.584123 
L 201.297219 77.807695 
L 202.546766 73.927458 
L 203.693257 71.05819 
L 204.839749 68.762264 
L 205.98624 66.954714 
L 207.132731 65.554584 
L 208.279222 64.487516 
L 209.530916 63.625268 
L 210.885665 62.965665 
L 212.448672 62.461731 
L 214.325139 62.101201 
L 216.826379 61.863524 
L 220.787571 61.73959 
L 231.730765 61.70932 
L 236.108472 61.709199 
L 236.108472 61.709199 
" clip-path="url(#p8476edf5bc)" style="fill: none; stroke: #000000; stroke-width: 1.5; stroke-linecap: square"/>
   </g>
   <g id="line2d_18">
    <path d="M 236.211528 75.281216 
L 277.691323 75.390872 
L 281.027742 75.635457 
L 283.215522 76.000827 
L 284.988933 76.515871 
L 286.446738 77.161641 
L 287.801487 78.010265 
L 289.05318 79.071139 
L 290.199672 80.334208 
L 291.346163 81.934659 
L 292.492654 83.934258 
L 293.639145 86.397627 
L 294.785637 89.389901 
L 296.035183 93.326962 
L 297.286877 98.048713 
L 298.641626 104.105176 
L 299.996375 111.192431 
L 301.454179 119.985429 
L 303.122389 131.48142 
L 304.998855 146.050789 
L 307.394893 166.578887 
L 314.690356 230.596513 
L 316.566823 244.520348 
L 318.235032 255.355042 
L 319.798039 264.084776 
L 321.257991 270.988047 
L 322.61274 276.354008 
L 323.862286 280.476153 
L 325.11398 283.881844 
L 326.363527 286.639366 
L 327.61522 288.842566 
L 328.864767 290.567685 
L 330.116461 291.900614 
L 331.366007 292.909921 
L 332.722903 293.717594 
L 334.180708 294.329104 
L 335.951972 294.814598 
L 338.036697 295.146381 
L 340.954453 295.365125 
L 345.748675 295.46899 
L 362.634731 295.487996 
L 398.487273 295.488 
L 398.487273 295.488 
" clip-path="url(#p8476edf5bc)" style="fill: none; stroke: #000000; stroke-width: 1.5; stroke-linecap: square"/>
   </g>
   <g id="patch_3">
    <path d="M 57.6 307.584 
L 57.6 41.472 
" style="fill: none; stroke: #000000; stroke-width: 0.8; stroke-linejoin: miter; stroke-linecap: square"/>
   </g>
   <g id="patch_4">
    <path d="M 414.72 307.584 
L 414.72 41.472 
" style="fill: none; stroke: #000000; stroke-width: 0.8; stroke-linejoin: miter; stroke-linecap: square"/>
   </g>
   <g id="patch_5">
    <path d="M 57.6 307.584 
L 414.72 307.584 
" style="fill: none; stroke: #000000; stroke-width: 0.8; stroke-linejoin: miter; stroke-linecap: square"/>
   </g>
   <g id="patch_6">
    <path d="M 57.6 41.472 
L 414.72 41.472 
" style="fill: none; stroke: #000000; stroke-width: 0.8; stroke-linejoin: miter; stroke-linecap: square"/>
   </g>
   <g id="legend_1">
    <g id="patch_7">
     <path d="M 247.73875 78.82825 
L 407.72 78.82825 
Q 409.72 78.82825 409.72 76.82825 
L 409.72 48.472 
Q 409.72 46.472 407.72 46.472 
L 247.73875 46.472 
Q 245.73875 46.472 245.73875 48.472 
L 245.73875 76.82825 
Q 245.73875 78.82825 247.73875 78.82825 
z
" style="fill: #ffffff; opacity: 0.8; stroke: #cccccc; stroke-linejoin: miter"/>
    </g>
    <g id="line2d_19">
     <path d="M 249.73875 54.570437 
L 259.73875 54.570437 
L 269.73875 54.570437 
" style="fill: none; stroke: #808080; stroke-width: 1.5; stroke-linecap: square"/>
    </g>
    <g id="text_18">
     <!-- Profil d'intensité -->
     <g transform="translate(277.73875 58.070437) scale(0.1 -0.1)">
      <defs>
       <path id="DejaVuSans-72" d="M 2631 2963 
Q 2534 3019 2420 3045 
Q 2306 3072 2169 3072 
Q 1681 3072 1420 2755 
Q 1159 2438 1159 1844 
L 1159 0 
L 581 0 
L 581 3500 
L 1159 3500 
L 1159 2956 
Q 1341 3275 1631 3429 
Q 1922 3584 2338 3584 
Q 2397 3584 2469 3576 
Q 2541 3569 2628 3553 
L 2631 2963 
z
" transform="scale(0.015625)"/>
       <path id="DejaVuSans-66" d="M 2375 4863 
L 2375 4384 
L 1825 4384 
Q 1516 4384 1395 4259 
Q 1275 4134 1275 3809 
L 1275 3500 
L 2222 3500 
L 2222 3053 
L 1275 3053 
L 1275 0 
L 697 0 
L 697 3053 
L 147 3053 
L 147 3500 
L 697 3500 
L 697 3744 
Q 697 4328 969 4595 
Q 1241 4863 1831 4863 
L 2375 4863 
z
" transform="scale(0.015625)"/>
       <path id="DejaVuSans-6c" d="M 603 4863 
L 1178 4863 
L 1178 0 
L 603 0 
L 603 4863 
z
" transform="scale(0.015625)"/>
       <path id="DejaVuSans-64" d="M 2906 2969 
L 2906 4863 
L 3481 4863 
L 3481 0 
L 2906 0 
L 2906 525 
Q 2725 213 2448 61 
Q 2172 -91 1784 -91 
Q 1150 -91 751 415 
Q 353 922 353 1747 
Q 353 2572 751 3078 
Q 1150 3584 1784 3584 
Q 2172 3584 2448 3432 
Q 2725 3281 2906 2969 
z
M 947 1747 
Q 947 1113 1208 752 
Q 1469 391 1925 391 
Q 2381 391 2643 752 
Q 2906 1113 2906 1747 
Q 2906 2381 2643 2742 
Q 2381 3103 1925 3103 
Q 1469 3103 1208 2742 
Q 947 2381 947 1747 
z
" transform="scale(0.015625)"/>
       <path id="DejaVuSans-27" d="M 1147 4666 
L 1147 2931 
L 616 2931 
L 616 4666 
L 1147 4666 
z
" transform="scale(0.015625)"/>
      </defs>
      <use xlink:href="#DejaVuSans-50"/>
      <use xlink:href="#DejaVuSans-72" x="58.552734"/>
      <use xlink:href="#DejaVuSans-6f" x="97.416016"/>
      <use xlink:href="#DejaVuSans-66" x="158.597656"/>
      <use xlink:href="#DejaVuSans-69" x="193.802734"/>
      <use xlink:href="#DejaVuSans-6c" x="221.585938"/>
      <use xlink:href="#DejaVuSans-20" x="249.369141"/>
      <use xlink:href="#DejaVuSans-64" x="281.15625"/>
      <use xlink:href="#DejaVuSans-27" x="344.632812"/>
      <use xlink:href="#DejaVuSans-69" x="372.123047"/>
      <use xlink:href="#DejaVuSans-6e" x="399.90625"/>
      <use xlink:href="#DejaVuSans-74" x="463.285156"/>
      <use xlink:href="#DejaVuSans-65" x="502.494141"/>
      <use xlink:href="#DejaVuSans-6e" x="564.017578"/>
      <use xlink:href="#DejaVuSans-73" x="627.396484"/>
      <use xlink:href="#DejaVuSans-69" x="679.496094"/>
      <use xlink:href="#DejaVuSans-74" x="707.279297"/>
      <use xlink:href="#DejaVuSans-e9" x="746.488281"/>
     </g>
    </g>
    <g id="line2d_20">
     <path d="M 249.73875 69.248562 
L 259.73875 69.248562 
L 269.73875 69.248562 
" style="fill: none; stroke: #000000; stroke-width: 1.5; stroke-linecap: square"/>
    </g>
    <g id="text_19">
     <!-- fit d'une fonction d'erreur -->
     <g transform="translate(277.73875 72.748562) scale(0.1 -0.1)">
      <defs>
       <path id="DejaVuSans-63" d="M 3122 3366 
L 3122 2828 
Q 2878 2963 2633 3030 
Q 2388 3097 2138 3097 
Q 1578 3097 1268 2742 
Q 959 2388 959 1747 
Q 959 1106 1268 751 
Q 1578 397 2138 397 
Q 2388 397 2633 464 
Q 2878 531 3122 666 
L 3122 134 
Q 2881 22 2623 -34 
Q 2366 -91 2075 -91 
Q 1284 -91 818 406 
Q 353 903 353 1747 
Q 353 2603 823 3093 
Q 1294 3584 2113 3584 
Q 2378 3584 2631 3529 
Q 2884 3475 3122 3366 
z
" transform="scale(0.015625)"/>
      </defs>
      <use xlink:href="#DejaVuSans-66"/>
      <use xlink:href="#DejaVuSans-69" x="35.205078"/>
      <use xlink:href="#DejaVuSans-74" x="62.988281"/>
      <use xlink:href="#DejaVuSans-20" x="102.197266"/>
      <use xlink:href="#DejaVuSans-64" x="133.984375"/>
      <use xlink:href="#DejaVuSans-27" x="197.460938"/>
      <use xlink:href="#DejaVuSans-75" x="224.951172"/>
      <use xlink:href="#DejaVuSans-6e" x="288.330078"/>
      <use xlink:href="#DejaVuSans-65" x="351.708984"/>
      <use xlink:href="#DejaVuSans-20" x="413.232422"/>
      <use xlink:href="#DejaVuSans-66" x="445.019531"/>
      <use xlink:href="#DejaVuSans-6f" x="480.224609"/>
      <use xlink:href="#DejaVuSans-6e" x="541.40625"/>
      <use xlink:href="#DejaVuSans-63" x="604.785156"/>
      <use xlink:href="#DejaVuSans-74" x="659.765625"/>
      <use xlink:href="#DejaVuSans-69" x="698.974609"/>
      <use xlink:href="#DejaVuSans-6f" x="726.757812"/>
      <use xlink:href="#DejaVuSans-6e" x="787.939453"/>
      <use xlink:href="#DejaVuSans-20" x="851.318359"/>
      <use xlink:href="#DejaVuSans-64" x="883.105469"/>
      <use xlink:href="#DejaVuSans-27" x="946.582031"/>
      <use xlink:href="#DejaVuSans-65" x="974.072266"/>
      <use xlink:href="#DejaVuSans-72" x="1035.595703"/>
      <use xlink:href="#DejaVuSans-72" x="1074.958984"/>
      <use xlink:href="#DejaVuSans-65" x="1113.822266"/>
      <use xlink:href="#DejaVuSans-75" x="1175.345703"/>
      <use xlink:href="#DejaVuSans-72" x="1238.724609"/>
     </g>
    </g>
   </g>
  </g>
 </g>
 <defs>
  <clipPath id="p8476edf5bc">
   <rect x="57.6" y="41.472" width="357.12" height="266.112"/>
  </clipPath>
 </defs>
</svg>
